<mxfile host="Electron" modified="2024-04-30T18:09:22.402Z" agent="Mozilla/5.0 (Windows NT 10.0; Win64; x64) AppleWebKit/537.36 (KHTML, like Gecko) draw.io/24.2.5 Chrome/120.0.6099.109 Electron/28.1.0 Safari/537.36" etag="S4LEHWb13BRohb6-e3rr" version="24.2.5" type="device">
  <diagram name="Page-1" id="dG9YIAcF-kpDrpHuVwIR">
    <mxGraphModel dx="1480" dy="877" grid="1" gridSize="10" guides="1" tooltips="1" connect="1" arrows="1" fold="1" page="1" pageScale="1" pageWidth="1169" pageHeight="827" math="0" shadow="0">
      <root>
        <mxCell id="0" />
        <mxCell id="1" parent="0" />
        <mxCell id="8uH0SxHNeaX4fzqTnumE-1" value="" style="group" vertex="1" connectable="0" parent="1">
          <mxGeometry x="70" y="220" width="1030" height="340" as="geometry" />
        </mxCell>
        <mxCell id="mjplegxmV6G3sR1LDcf9-21" value="" style="group" parent="8uH0SxHNeaX4fzqTnumE-1" vertex="1" connectable="0">
          <mxGeometry width="70" height="340" as="geometry" />
        </mxCell>
        <mxCell id="mjplegxmV6G3sR1LDcf9-1" value="" style="shape=umlLifeline;perimeter=lifelinePerimeter;whiteSpace=wrap;html=1;container=1;dropTarget=0;collapsible=0;recursiveResize=0;outlineConnect=0;portConstraint=eastwest;newEdgeStyle={&quot;curved&quot;:0,&quot;rounded&quot;:0};participant=umlActor;" parent="mjplegxmV6G3sR1LDcf9-21" vertex="1">
          <mxGeometry x="25" y="30" width="20" height="310" as="geometry" />
        </mxCell>
        <mxCell id="mjplegxmV6G3sR1LDcf9-5" value="Manager" style="text;html=1;align=center;verticalAlign=middle;resizable=0;points=[];autosize=1;strokeColor=none;fillColor=none;" parent="mjplegxmV6G3sR1LDcf9-21" vertex="1">
          <mxGeometry width="70" height="30" as="geometry" />
        </mxCell>
        <mxCell id="mjplegxmV6G3sR1LDcf9-2" value="" style="html=1;points=[[0,0,0,0,5],[0,1,0,0,-5],[1,0,0,0,5],[1,1,0,0,-5]];perimeter=orthogonalPerimeter;outlineConnect=0;targetShapes=umlLifeline;portConstraint=eastwest;newEdgeStyle={&quot;curved&quot;:0,&quot;rounded&quot;:0};container=0;fillColor=#1ba1e2;fontColor=#ffffff;strokeColor=#006EAF;" parent="mjplegxmV6G3sR1LDcf9-21" vertex="1">
          <mxGeometry x="30" y="250" width="10" height="80" as="geometry" />
        </mxCell>
        <mxCell id="mjplegxmV6G3sR1LDcf9-22" value="" style="group" parent="8uH0SxHNeaX4fzqTnumE-1" vertex="1" connectable="0">
          <mxGeometry x="250" width="100" height="330" as="geometry" />
        </mxCell>
        <mxCell id="mjplegxmV6G3sR1LDcf9-3" value="Reports DS" style="shape=umlLifeline;perimeter=lifelinePerimeter;whiteSpace=wrap;html=1;container=0;dropTarget=0;collapsible=0;recursiveResize=0;outlineConnect=0;portConstraint=eastwest;newEdgeStyle={&quot;edgeStyle&quot;:&quot;elbowEdgeStyle&quot;,&quot;elbow&quot;:&quot;vertical&quot;,&quot;curved&quot;:0,&quot;rounded&quot;:0};size=50;" parent="mjplegxmV6G3sR1LDcf9-22" vertex="1">
          <mxGeometry width="100" height="320" as="geometry" />
        </mxCell>
        <mxCell id="mjplegxmV6G3sR1LDcf9-4" value="" style="html=1;points=[[0,0,0,0,5],[0,1,0,0,-5],[1,0,0,0,5],[1,1,0,0,-5]];perimeter=orthogonalPerimeter;outlineConnect=0;targetShapes=umlLifeline;portConstraint=eastwest;newEdgeStyle={&quot;curved&quot;:0,&quot;rounded&quot;:0};fillColor=#1ba1e2;container=0;fontColor=#ffffff;strokeColor=#006EAF;" parent="mjplegxmV6G3sR1LDcf9-22" vertex="1">
          <mxGeometry x="45" y="80" width="10" height="250" as="geometry" />
        </mxCell>
        <mxCell id="mjplegxmV6G3sR1LDcf9-23" value="" style="group" parent="8uH0SxHNeaX4fzqTnumE-1" vertex="1" connectable="0">
          <mxGeometry x="485" y="5" width="100" height="330" as="geometry" />
        </mxCell>
        <mxCell id="mjplegxmV6G3sR1LDcf9-24" value="Books DS" style="shape=umlLifeline;perimeter=lifelinePerimeter;whiteSpace=wrap;html=1;container=0;dropTarget=0;collapsible=0;recursiveResize=0;outlineConnect=0;portConstraint=eastwest;newEdgeStyle={&quot;edgeStyle&quot;:&quot;elbowEdgeStyle&quot;,&quot;elbow&quot;:&quot;vertical&quot;,&quot;curved&quot;:0,&quot;rounded&quot;:0};size=50;" parent="mjplegxmV6G3sR1LDcf9-23" vertex="1">
          <mxGeometry width="100" height="320" as="geometry" />
        </mxCell>
        <mxCell id="mjplegxmV6G3sR1LDcf9-25" value="" style="html=1;points=[[0,0,0,0,5],[0,1,0,0,-5],[1,0,0,0,5],[1,1,0,0,-5]];perimeter=orthogonalPerimeter;outlineConnect=0;targetShapes=umlLifeline;portConstraint=eastwest;newEdgeStyle={&quot;curved&quot;:0,&quot;rounded&quot;:0};fillColor=#1ba1e2;container=0;fontColor=#ffffff;strokeColor=#006EAF;" parent="mjplegxmV6G3sR1LDcf9-23" vertex="1">
          <mxGeometry x="45" y="250" width="10" height="80" as="geometry" />
        </mxCell>
        <mxCell id="mjplegxmV6G3sR1LDcf9-26" value="" style="group" parent="8uH0SxHNeaX4fzqTnumE-1" vertex="1" connectable="0">
          <mxGeometry x="710" width="100" height="330" as="geometry" />
        </mxCell>
        <mxCell id="mjplegxmV6G3sR1LDcf9-27" value="Members DS" style="shape=umlLifeline;perimeter=lifelinePerimeter;whiteSpace=wrap;html=1;container=0;dropTarget=0;collapsible=0;recursiveResize=0;outlineConnect=0;portConstraint=eastwest;newEdgeStyle={&quot;edgeStyle&quot;:&quot;elbowEdgeStyle&quot;,&quot;elbow&quot;:&quot;vertical&quot;,&quot;curved&quot;:0,&quot;rounded&quot;:0};size=50;" parent="mjplegxmV6G3sR1LDcf9-26" vertex="1">
          <mxGeometry width="100" height="320" as="geometry" />
        </mxCell>
        <mxCell id="mjplegxmV6G3sR1LDcf9-28" value="" style="html=1;points=[[0,0,0,0,5],[0,1,0,0,-5],[1,0,0,0,5],[1,1,0,0,-5]];perimeter=orthogonalPerimeter;outlineConnect=0;targetShapes=umlLifeline;portConstraint=eastwest;newEdgeStyle={&quot;curved&quot;:0,&quot;rounded&quot;:0};fillColor=#1ba1e2;container=0;fontColor=#ffffff;strokeColor=#006EAF;" parent="mjplegxmV6G3sR1LDcf9-26" vertex="1">
          <mxGeometry x="45" y="170" width="10" height="70" as="geometry" />
        </mxCell>
        <mxCell id="mjplegxmV6G3sR1LDcf9-31" value="" style="group" parent="8uH0SxHNeaX4fzqTnumE-1" vertex="1" connectable="0">
          <mxGeometry x="930" y="9" width="100" height="320" as="geometry" />
        </mxCell>
        <mxCell id="mjplegxmV6G3sR1LDcf9-32" value="Reservations DS" style="shape=umlLifeline;perimeter=lifelinePerimeter;whiteSpace=wrap;html=1;container=0;dropTarget=0;collapsible=0;recursiveResize=0;outlineConnect=0;portConstraint=eastwest;newEdgeStyle={&quot;edgeStyle&quot;:&quot;elbowEdgeStyle&quot;,&quot;elbow&quot;:&quot;vertical&quot;,&quot;curved&quot;:0,&quot;rounded&quot;:0};size=50;" parent="mjplegxmV6G3sR1LDcf9-31" vertex="1">
          <mxGeometry width="100" height="310.3030303030303" as="geometry" />
        </mxCell>
        <mxCell id="mjplegxmV6G3sR1LDcf9-33" value="" style="html=1;points=[[0,0,0,0,5],[0,1,0,0,-5],[1,0,0,0,5],[1,1,0,0,-5]];perimeter=orthogonalPerimeter;outlineConnect=0;targetShapes=umlLifeline;portConstraint=eastwest;newEdgeStyle={&quot;curved&quot;:0,&quot;rounded&quot;:0};fillColor=#1ba1e2;container=0;fontColor=#ffffff;strokeColor=#006EAF;" parent="mjplegxmV6G3sR1LDcf9-31" vertex="1">
          <mxGeometry x="45" y="77.58" width="10" height="72.42" as="geometry" />
        </mxCell>
        <mxCell id="mjplegxmV6G3sR1LDcf9-8" value="" style="html=1;labelBackgroundColor=#ffffff;startArrow=none;startFill=0;startSize=6;endArrow=classic;endFill=1;endSize=6;jettySize=auto;orthogonalLoop=1;strokeWidth=1;dashed=1;fontSize=14;rounded=0;sourcePerimeterSpacing=9;targetPerimeterSpacing=0;" parent="mjplegxmV6G3sR1LDcf9-31" target="mjplegxmV6G3sR1LDcf9-4" edge="1">
          <mxGeometry width="60" height="60" relative="1" as="geometry">
            <mxPoint x="45" y="120" as="sourcePoint" />
            <mxPoint x="-225" y="120" as="targetPoint" />
            <Array as="points">
              <mxPoint x="-115" y="120" />
            </Array>
          </mxGeometry>
        </mxCell>
        <mxCell id="mjplegxmV6G3sR1LDcf9-35" value="" style="html=1;labelBackgroundColor=#ffffff;startArrow=none;startFill=0;startSize=6;endArrow=classic;endFill=1;endSize=6;jettySize=auto;orthogonalLoop=1;strokeWidth=1;dashed=1;fontSize=14;rounded=0;sourcePerimeterSpacing=9;targetPerimeterSpacing=0;" parent="8uH0SxHNeaX4fzqTnumE-1" target="mjplegxmV6G3sR1LDcf9-4" edge="1">
          <mxGeometry width="60" height="60" relative="1" as="geometry">
            <mxPoint x="520" y="290" as="sourcePoint" />
            <mxPoint x="310" y="290" as="targetPoint" />
            <Array as="points">
              <mxPoint x="530" y="290" />
            </Array>
          </mxGeometry>
        </mxCell>
        <mxCell id="mjplegxmV6G3sR1LDcf9-37" value="" style="html=1;labelBackgroundColor=#ffffff;startArrow=none;startFill=0;startSize=6;endArrow=classic;endFill=1;endSize=6;jettySize=auto;orthogonalLoop=1;strokeWidth=1;dashed=1;fontSize=14;rounded=0;sourcePerimeterSpacing=9;targetPerimeterSpacing=0;" parent="8uH0SxHNeaX4fzqTnumE-1" target="mjplegxmV6G3sR1LDcf9-4" edge="1">
          <mxGeometry width="60" height="60" relative="1" as="geometry">
            <mxPoint x="755" y="210" as="sourcePoint" />
            <mxPoint x="310" y="210" as="targetPoint" />
            <Array as="points" />
          </mxGeometry>
        </mxCell>
        <mxCell id="mjplegxmV6G3sR1LDcf9-38" value="Send reservations reports&lt;div&gt;(reservations info)&lt;/div&gt;" style="text;html=1;align=center;verticalAlign=middle;resizable=0;points=[];autosize=1;strokeColor=none;fillColor=none;" parent="8uH0SxHNeaX4fzqTnumE-1" vertex="1">
          <mxGeometry x="790" y="80" width="160" height="40" as="geometry" />
        </mxCell>
        <mxCell id="mjplegxmV6G3sR1LDcf9-39" value="Send members reports&lt;div&gt;(members info)&lt;/div&gt;" style="text;html=1;align=center;verticalAlign=middle;resizable=0;points=[];autosize=1;strokeColor=none;fillColor=none;" parent="8uH0SxHNeaX4fzqTnumE-1" vertex="1">
          <mxGeometry x="565" y="160" width="150" height="40" as="geometry" />
        </mxCell>
        <mxCell id="mjplegxmV6G3sR1LDcf9-40" value="Send books reports&lt;div&gt;(books&amp;nbsp;info)&lt;/div&gt;" style="text;html=1;align=center;verticalAlign=middle;resizable=0;points=[];autosize=1;strokeColor=none;fillColor=none;" parent="8uH0SxHNeaX4fzqTnumE-1" vertex="1">
          <mxGeometry x="355" y="240" width="130" height="40" as="geometry" />
        </mxCell>
        <mxCell id="mjplegxmV6G3sR1LDcf9-41" value="" style="html=1;labelBackgroundColor=#ffffff;startArrow=none;startFill=0;startSize=6;endArrow=classic;endFill=1;endSize=6;jettySize=auto;orthogonalLoop=1;strokeWidth=1;dashed=1;fontSize=14;rounded=0;sourcePerimeterSpacing=9;targetPerimeterSpacing=0;" parent="8uH0SxHNeaX4fzqTnumE-1" edge="1">
          <mxGeometry width="60" height="60" relative="1" as="geometry">
            <mxPoint x="285" y="310" as="sourcePoint" />
            <mxPoint x="40" y="310" as="targetPoint" />
            <Array as="points">
              <mxPoint x="295" y="310" />
            </Array>
          </mxGeometry>
        </mxCell>
        <mxCell id="mjplegxmV6G3sR1LDcf9-42" value="Send the final report(report document)" style="text;html=1;align=center;verticalAlign=middle;resizable=0;points=[];autosize=1;strokeColor=none;fillColor=none;" parent="8uH0SxHNeaX4fzqTnumE-1" vertex="1">
          <mxGeometry x="50" y="270" width="230" height="30" as="geometry" />
        </mxCell>
      </root>
    </mxGraphModel>
  </diagram>
</mxfile>
